<?xml version="1.0" encoding="UTF-8" standalone="no"?>
<!-- Created with Inkscape (http://www.inkscape.org/) -->

<svg
   xmlns:dc="http://purl.org/dc/elements/1.1/"
   xmlns:cc="http://creativecommons.org/ns#"
   xmlns:rdf="http://www.w3.org/1999/02/22-rdf-syntax-ns#"
   xmlns:svg="http://www.w3.org/2000/svg"
   xmlns="http://www.w3.org/2000/svg"
   xmlns:sodipodi="http://sodipodi.sourceforge.net/DTD/sodipodi-0.dtd"
   xmlns:inkscape="http://www.inkscape.org/namespaces/inkscape"
   width="40.623478"
   height="50.000107"
   viewBox="0 0 10.748295 13.229195"
   version="1.1"
   id="svg8"
   inkscape:version="0.92.3 (2405546, 2018-03-11)"
   sodipodi:docname="pinterest-sml.svg">
  <defs
     id="defs2" />
  <sodipodi:namedview
     id="base"
     pagecolor="#ffffff"
     bordercolor="#666666"
     borderopacity="1.0"
     inkscape:pageopacity="0.0"
     inkscape:pageshadow="2"
     inkscape:zoom="1"
     inkscape:cx="-12.506165"
     inkscape:cy="-19.504366"
     inkscape:document-units="px"
     inkscape:current-layer="layer1"
     showgrid="false"
     units="px"
     inkscape:pagecheckerboard="true"
     inkscape:window-width="1366"
     inkscape:window-height="737"
     inkscape:window-x="0"
     inkscape:window-y="0"
     inkscape:window-maximized="1"
     fit-margin-top="0"
     fit-margin-left="0"
     fit-margin-right="0"
     fit-margin-bottom="0" />
  <metadata
     id="metadata5">
    <rdf:RDF>
      <cc:Work
         rdf:about="">
        <dc:format>image/svg+xml</dc:format>
        <dc:type
           rdf:resource="http://purl.org/dc/dcmitype/StillImage" />
        <dc:title></dc:title>
      </cc:Work>
    </rdf:RDF>
  </metadata>
  <g
     inkscape:label="Layer 1"
     inkscape:groupmode="layer"
     id="layer1"
     transform="translate(-64.302671,-238.01142)">
    <path
       id="path923"
       d="m 69.856793,238.01146 c -3.626496,9.7e-4 -5.554122,2.32395 -5.554122,4.85737 0,1.17466 0.656506,2.64036 1.707689,3.10504 0.299864,0.13505 0.260176,-0.0298 0.518149,-1.01645 0.0204,-0.0821 0.0099,-0.15324 -0.05623,-0.22986 -1.502634,-1.73801 -0.29325,-5.31104 3.170083,-5.31104 5.01227,0 4.075743,6.93549 0.872035,6.93549 -0.825732,0 -1.440897,-0.64824 -1.246315,-1.45026 0.235923,-0.95527 0.697848,-1.9822 0.697848,-2.67068 0,-1.73525 -2.585236,-1.47783 -2.585236,0.82132 0,0.71053 0.251358,1.19009 0.251358,1.19009 0,0 -0.831796,3.36026 -0.986138,3.9881 -0.26128,1.06276 0.03528,2.78313 0.06119,2.9314 0.01599,0.0816 0.107489,0.10749 0.158752,0.0402 0.08213,-0.10748 1.087563,-1.54177 1.369238,-2.57862 0.102528,-0.37759 0.523111,-1.90999 0.523111,-1.90999 0.277265,0.50052 1.076538,0.91945 1.928178,0.91945 2.53342,0 4.364583,-2.22695 4.364583,-4.99023 -0.0088,-2.64917 -2.275999,-4.63137 -5.194174,-4.63137 z"
       inkscape:connector-curvature="0"
       style="stroke-width:0.55122292" />
  </g>
</svg>
