<?xml version="1.0" encoding="UTF-8" standalone="no"?>
<!-- Created with Inkscape (http://www.inkscape.org/) -->

<svg
   xmlns:dc="http://purl.org/dc/elements/1.1/"
   xmlns:cc="http://creativecommons.org/ns#"
   xmlns:rdf="http://www.w3.org/1999/02/22-rdf-syntax-ns#"
   xmlns:svg="http://www.w3.org/2000/svg"
   xmlns="http://www.w3.org/2000/svg"
   xmlns:sodipodi="http://sodipodi.sourceforge.net/DTD/sodipodi-0.dtd"
   xmlns:inkscape="http://www.inkscape.org/namespaces/inkscape"
   width="61.522697"
   height="50.000053"
   viewBox="0 0 16.277879 13.229181"
   version="1.1"
   id="svg8"
   inkscape:version="0.92.3 (2405546, 2018-03-11)"
   sodipodi:docname="twitter-sml.svg">
  <defs
     id="defs2" />
  <sodipodi:namedview
     id="base"
     pagecolor="#ffffff"
     bordercolor="#666666"
     borderopacity="1.0"
     inkscape:pageopacity="0.0"
     inkscape:pageshadow="2"
     inkscape:zoom="1"
     inkscape:cx="12.700003"
     inkscape:cy="-37.607262"
     inkscape:document-units="px"
     inkscape:current-layer="layer1"
     showgrid="false"
     units="px"
     inkscape:pagecheckerboard="true"
     inkscape:window-width="1366"
     inkscape:window-height="737"
     inkscape:window-x="0"
     inkscape:window-y="0"
     inkscape:window-maximized="1"
     fit-margin-top="0"
     fit-margin-left="0"
     fit-margin-right="0"
     fit-margin-bottom="0" />
  <metadata
     id="metadata5">
    <rdf:RDF>
      <cc:Work
         rdf:about="">
        <dc:format>image/svg+xml</dc:format>
        <dc:type
           rdf:resource="http://purl.org/dc/dcmitype/StillImage" />
        <dc:title></dc:title>
      </cc:Work>
    </rdf:RDF>
  </metadata>
  <g
     inkscape:label="Layer 1"
     inkscape:groupmode="layer"
     id="layer1"
     transform="translate(142.99183,-431.95605)">
    <path
       id="path1053"
       d="m -137.87302,445.18512 c 6.14289,0 9.50217,-5.08919 9.50217,-9.50216 0,-0.14454 -0.003,-0.28849 -0.009,-0.43164 0.65202,-0.47144 1.21874,-1.05976 1.6659,-1.72941 -0.59837,0.26609 -1.24243,0.44497 -1.91785,0.5259 0.68945,-0.41361 1.21884,-1.06763 1.4685,-1.84727 -0.64526,0.38255 -1.3599,0.66049 -2.12063,0.8106 -0.60942,-0.64914 -1.47716,-1.05509 -2.43788,-1.05509 -1.84419,0 -3.33987,1.49558 -3.33987,3.33917 0,0.26221 0.0294,0.51705 0.0866,0.76153 -2.77564,-0.13966 -5.23702,-1.4685 -6.88401,-3.48929 -0.28669,0.49345 -0.45214,1.06684 -0.45214,1.67865 0,1.15852 0.58962,2.18155 1.48613,2.77982 -0.5479,-0.0168 -1.06256,-0.16724 -1.5125,-0.41759 -5.1e-4,0.014 -5.1e-4,0.0277 -5.1e-4,0.0426 0,1.61743 1.15115,2.96787 2.67948,3.27387 -0.28072,0.0764 -0.57607,0.11746 -0.88069,0.11746 -0.21481,0 -0.42426,-0.0211 -0.62773,-0.0602 0.42516,1.32695 1.65814,2.29254 3.11987,2.31962 -1.14309,0.89592 -2.58302,1.42958 -4.14798,1.42958 -0.26918,0 -0.53526,-0.0154 -0.79667,-0.0463 1.47806,0.94738 3.23316,1.50026 5.11935,1.50026"
       inkscape:connector-curvature="0"
       style="stroke-width:0.02548378" />
  </g>
</svg>
