<?xml version="1.0" encoding="UTF-8" standalone="no"?>
<!-- Created with Inkscape (http://www.inkscape.org/) -->

<svg
   xmlns:dc="http://purl.org/dc/elements/1.1/"
   xmlns:cc="http://creativecommons.org/ns#"
   xmlns:rdf="http://www.w3.org/1999/02/22-rdf-syntax-ns#"
   xmlns:svg="http://www.w3.org/2000/svg"
   xmlns="http://www.w3.org/2000/svg"
   xmlns:sodipodi="http://sodipodi.sourceforge.net/DTD/sodipodi-0.dtd"
   xmlns:inkscape="http://www.inkscape.org/namespaces/inkscape"
   width="71.412247"
   height="50.000015"
   viewBox="0 0 18.894489 13.229171"
   version="1.1"
   id="svg8"
   inkscape:version="0.92.3 (2405546, 2018-03-11)"
   sodipodi:docname="youtube-sml.svg">
  <defs
     id="defs2" />
  <sodipodi:namedview
     id="base"
     pagecolor="#ffffff"
     bordercolor="#666666"
     borderopacity="1.0"
     inkscape:pageopacity="0.0"
     inkscape:pageshadow="2"
     inkscape:zoom="1"
     inkscape:cx="76.074494"
     inkscape:cy="-38.518034"
     inkscape:document-units="px"
     inkscape:current-layer="layer1"
     showgrid="false"
     units="px"
     inkscape:pagecheckerboard="true"
     inkscape:window-width="1366"
     inkscape:window-height="737"
     inkscape:window-x="0"
     inkscape:window-y="0"
     inkscape:window-maximized="1"
     fit-margin-top="0"
     fit-margin-left="0"
     fit-margin-right="0"
     fit-margin-bottom="0" />
  <metadata
     id="metadata5">
    <rdf:RDF>
      <cc:Work
         rdf:about="">
        <dc:format>image/svg+xml</dc:format>
        <dc:type
           rdf:resource="http://purl.org/dc/dcmitype/StillImage" />
        <dc:title></dc:title>
      </cc:Work>
    </rdf:RDF>
  </metadata>
  <g
     inkscape:label="Layer 1"
     inkscape:groupmode="layer"
     id="layer1"
     transform="translate(45.195083,-341.49217)">
    <path
       id="path1013"
       d="m -26.689889,343.56222 c -0.217729,-0.80945 -0.855927,-1.44753 -1.665264,-1.66549 -1.478557,-0.40456 -7.392898,-0.40456 -7.392898,-0.40456 0,0 -5.914111,0 -7.392668,0.38922 -0.793768,0.21773 -1.447534,0.87149 -1.665264,1.68083 -0.3891,1.47844 -0.3891,4.54454 -0.3891,4.54454 0,0 0,3.08154 0.3891,4.54453 0.21796,0.80934 0.855927,1.44742 1.66538,1.66538 1.494009,0.40467 7.392782,0.40467 7.392782,0.40467 0,0 5.914111,0 7.392668,-0.38922 0.809452,-0.21784 1.447535,-0.85592 1.665495,-1.66526 0.388985,-1.47856 0.388985,-4.54453 0.388985,-4.54453 0,0 0.01557,-3.08167 -0.389216,-4.56011 z m -10.941156,7.3771 v -5.66513 l 4.918065,2.83257 z m 0,0"
       inkscape:connector-curvature="0"
       style="stroke-width:0.02952269" />
  </g>
</svg>
